<mxfile host="app.diagrams.net" agent="Mozilla/5.0 (X11; Linux x86_64) AppleWebKit/537.36 (KHTML, like Gecko) Chrome/133.0.0.0 Safari/537.36" version="26.0.16">
  <diagram name="Page-1" id="pwwdq_0nMCk1IciR-zo5">
    <mxGraphModel grid="0" page="0" gridSize="10" guides="1" tooltips="1" connect="1" arrows="1" fold="1" pageScale="1" pageWidth="827" pageHeight="1169" math="0" shadow="0">
      <root>
        <mxCell id="0" />
        <mxCell id="1" parent="0" />
        <mxCell id="ObivibnyZp41QjcmPRQ--3" value="API Gateway" style="swimlane;whiteSpace=wrap;html=1;" vertex="1" parent="1">
          <mxGeometry x="673" y="209" width="165" height="112" as="geometry" />
        </mxCell>
        <mxCell id="hMXItjmgLlIieqRShrU6-20" style="edgeStyle=none;curved=1;rounded=0;orthogonalLoop=1;jettySize=auto;html=1;fontSize=12;startSize=8;endSize=8;" edge="1" parent="ObivibnyZp41QjcmPRQ--3" source="ObivibnyZp41QjcmPRQ--4">
          <mxGeometry relative="1" as="geometry">
            <mxPoint x="374.9047619047619" y="105.28571428571422" as="targetPoint" />
          </mxGeometry>
        </mxCell>
        <mxCell id="ObivibnyZp41QjcmPRQ--4" value="&lt;div&gt;Routes requests&lt;/div&gt;&lt;div&gt;Authenticates Users&lt;/div&gt;&lt;div&gt;&lt;span style=&quot;background-color: transparent; color: light-dark(rgb(0, 0, 0), rgb(255, 255, 255));&quot;&gt;Rate Limiting&amp;nbsp;&lt;/span&gt;&lt;/div&gt;" style="text;html=1;align=left;verticalAlign=middle;resizable=0;points=[];autosize=1;strokeColor=none;fillColor=none;fontSize=16;" vertex="1" parent="ObivibnyZp41QjcmPRQ--3">
          <mxGeometry x="4" y="31" width="161" height="70" as="geometry" />
        </mxCell>
        <mxCell id="ObivibnyZp41QjcmPRQ--5" value="Server Management" style="swimlane;whiteSpace=wrap;html=1;" vertex="1" parent="1">
          <mxGeometry x="1054" y="-78" width="144" height="96" as="geometry" />
        </mxCell>
        <mxCell id="ObivibnyZp41QjcmPRQ--6" value="&lt;div&gt;Web API&lt;/div&gt;" style="text;html=1;align=left;verticalAlign=middle;resizable=0;points=[];autosize=1;strokeColor=none;fillColor=none;fontSize=16;" vertex="1" parent="ObivibnyZp41QjcmPRQ--5">
          <mxGeometry x="32" y="41" width="80" height="31" as="geometry" />
        </mxCell>
        <mxCell id="hMXItjmgLlIieqRShrU6-1" value="Channel Management" style="swimlane;whiteSpace=wrap;html=1;" vertex="1" parent="1">
          <mxGeometry x="1054" y="31" width="144" height="96" as="geometry" />
        </mxCell>
        <mxCell id="hMXItjmgLlIieqRShrU6-2" value="&lt;div&gt;Web API&lt;/div&gt;" style="text;html=1;align=left;verticalAlign=middle;resizable=0;points=[];autosize=1;strokeColor=none;fillColor=none;fontSize=16;" vertex="1" parent="hMXItjmgLlIieqRShrU6-1">
          <mxGeometry x="32" y="41" width="80" height="31" as="geometry" />
        </mxCell>
        <mxCell id="hMXItjmgLlIieqRShrU6-3" value="Messaging" style="swimlane;whiteSpace=wrap;html=1;" vertex="1" parent="1">
          <mxGeometry x="1054" y="142" width="144" height="96" as="geometry" />
        </mxCell>
        <mxCell id="hMXItjmgLlIieqRShrU6-4" value="&lt;div&gt;Web API&lt;/div&gt;" style="text;html=1;align=left;verticalAlign=middle;resizable=0;points=[];autosize=1;strokeColor=none;fillColor=none;fontSize=16;" vertex="1" parent="hMXItjmgLlIieqRShrU6-3">
          <mxGeometry x="32" y="41" width="80" height="31" as="geometry" />
        </mxCell>
        <mxCell id="hMXItjmgLlIieqRShrU6-5" value="Friends" style="swimlane;whiteSpace=wrap;html=1;" vertex="1" parent="1">
          <mxGeometry x="1047.5" y="256" width="157" height="99" as="geometry" />
        </mxCell>
        <mxCell id="hMXItjmgLlIieqRShrU6-6" value="&lt;div&gt;Web API&lt;/div&gt;" style="text;html=1;align=left;verticalAlign=middle;resizable=0;points=[];autosize=1;strokeColor=none;fillColor=none;fontSize=16;" vertex="1" parent="hMXItjmgLlIieqRShrU6-5">
          <mxGeometry x="32" y="41" width="80" height="31" as="geometry" />
        </mxCell>
        <mxCell id="hMXItjmgLlIieqRShrU6-7" value="Permission" style="swimlane;whiteSpace=wrap;html=1;" vertex="1" parent="1">
          <mxGeometry x="1052" y="373" width="144" height="96" as="geometry" />
        </mxCell>
        <mxCell id="hMXItjmgLlIieqRShrU6-8" value="&lt;div&gt;Web API&lt;/div&gt;" style="text;html=1;align=left;verticalAlign=middle;resizable=0;points=[];autosize=1;strokeColor=none;fillColor=none;fontSize=16;" vertex="1" parent="hMXItjmgLlIieqRShrU6-7">
          <mxGeometry x="32" y="41" width="80" height="31" as="geometry" />
        </mxCell>
        <mxCell id="hMXItjmgLlIieqRShrU6-9" value="Notification" style="swimlane;whiteSpace=wrap;html=1;" vertex="1" parent="1">
          <mxGeometry x="1052" y="499" width="144" height="96" as="geometry" />
        </mxCell>
        <mxCell id="hMXItjmgLlIieqRShrU6-10" value="&lt;div&gt;Web API&lt;/div&gt;" style="text;html=1;align=left;verticalAlign=middle;resizable=0;points=[];autosize=1;strokeColor=none;fillColor=none;fontSize=16;" vertex="1" parent="hMXItjmgLlIieqRShrU6-9">
          <mxGeometry x="32" y="41" width="80" height="31" as="geometry" />
        </mxCell>
        <mxCell id="hMXItjmgLlIieqRShrU6-11" value="Server DB" style="shape=cylinder3;whiteSpace=wrap;html=1;boundedLbl=1;backgroundOutline=1;size=15;" vertex="1" parent="1">
          <mxGeometry x="1382" y="-65" width="60" height="80" as="geometry" />
        </mxCell>
        <mxCell id="hMXItjmgLlIieqRShrU6-12" value="Channel DB" style="shape=cylinder3;whiteSpace=wrap;html=1;boundedLbl=1;backgroundOutline=1;size=15;" vertex="1" parent="1">
          <mxGeometry x="1382" y="36" width="60" height="80" as="geometry" />
        </mxCell>
        <mxCell id="hMXItjmgLlIieqRShrU6-13" value="Notification DB" style="shape=cylinder3;whiteSpace=wrap;html=1;boundedLbl=1;backgroundOutline=1;size=15;" vertex="1" parent="1">
          <mxGeometry x="1382" y="504" width="60" height="80" as="geometry" />
        </mxCell>
        <mxCell id="hMXItjmgLlIieqRShrU6-14" value="Permission DB" style="shape=cylinder3;whiteSpace=wrap;html=1;boundedLbl=1;backgroundOutline=1;size=15;" vertex="1" parent="1">
          <mxGeometry x="1382" y="381" width="60" height="80" as="geometry" />
        </mxCell>
        <mxCell id="hMXItjmgLlIieqRShrU6-15" value="Friend DB" style="shape=cylinder3;whiteSpace=wrap;html=1;boundedLbl=1;backgroundOutline=1;size=15;" vertex="1" parent="1">
          <mxGeometry x="1380.75" y="261" width="62.5" height="82.75" as="geometry" />
        </mxCell>
        <mxCell id="hMXItjmgLlIieqRShrU6-16" value="Message DB" style="shape=cylinder3;whiteSpace=wrap;html=1;boundedLbl=1;backgroundOutline=1;size=15;" vertex="1" parent="1">
          <mxGeometry x="1382" y="150" width="60" height="80" as="geometry" />
        </mxCell>
        <mxCell id="hMXItjmgLlIieqRShrU6-17" value="" style="endArrow=classic;html=1;rounded=0;fontSize=12;startSize=8;endSize=8;curved=1;exitX=1;exitY=0;exitDx=0;exitDy=0;" edge="1" parent="1" source="ObivibnyZp41QjcmPRQ--3">
          <mxGeometry width="50" height="50" relative="1" as="geometry">
            <mxPoint x="955" y="252" as="sourcePoint" />
            <mxPoint x="1051" y="-21" as="targetPoint" />
          </mxGeometry>
        </mxCell>
        <mxCell id="hMXItjmgLlIieqRShrU6-18" value="" style="endArrow=classic;html=1;rounded=0;fontSize=12;startSize=8;endSize=8;curved=1;exitX=1;exitY=0.25;exitDx=0;exitDy=0;entryX=0;entryY=0.5;entryDx=0;entryDy=0;" edge="1" parent="1" source="ObivibnyZp41QjcmPRQ--3" target="hMXItjmgLlIieqRShrU6-1">
          <mxGeometry width="50" height="50" relative="1" as="geometry">
            <mxPoint x="848" y="219" as="sourcePoint" />
            <mxPoint x="1061" y="-11" as="targetPoint" />
          </mxGeometry>
        </mxCell>
        <mxCell id="hMXItjmgLlIieqRShrU6-19" value="" style="endArrow=classic;html=1;rounded=0;fontSize=12;startSize=8;endSize=8;curved=1;exitX=1.008;exitY=0.286;exitDx=0;exitDy=0;entryX=0;entryY=0.5;entryDx=0;entryDy=0;exitPerimeter=0;" edge="1" parent="1" source="ObivibnyZp41QjcmPRQ--4" target="hMXItjmgLlIieqRShrU6-3">
          <mxGeometry width="50" height="50" relative="1" as="geometry">
            <mxPoint x="848" y="247" as="sourcePoint" />
            <mxPoint x="1064" y="89" as="targetPoint" />
          </mxGeometry>
        </mxCell>
        <mxCell id="hMXItjmgLlIieqRShrU6-21" style="edgeStyle=none;curved=1;rounded=0;orthogonalLoop=1;jettySize=auto;html=1;entryX=0;entryY=0.5;entryDx=0;entryDy=0;fontSize=12;startSize=8;endSize=8;exitX=1.02;exitY=0.98;exitDx=0;exitDy=0;exitPerimeter=0;" edge="1" parent="1" source="ObivibnyZp41QjcmPRQ--4" target="hMXItjmgLlIieqRShrU6-7">
          <mxGeometry relative="1" as="geometry" />
        </mxCell>
        <mxCell id="hMXItjmgLlIieqRShrU6-22" style="edgeStyle=none;curved=1;rounded=0;orthogonalLoop=1;jettySize=auto;html=1;entryX=0;entryY=0.5;entryDx=0;entryDy=0;fontSize=12;startSize=8;endSize=8;exitX=1;exitY=1;exitDx=0;exitDy=0;" edge="1" parent="1" source="ObivibnyZp41QjcmPRQ--3" target="hMXItjmgLlIieqRShrU6-9">
          <mxGeometry relative="1" as="geometry" />
        </mxCell>
        <mxCell id="hMXItjmgLlIieqRShrU6-23" style="edgeStyle=none;curved=1;rounded=0;orthogonalLoop=1;jettySize=auto;html=1;entryX=0;entryY=0.5;entryDx=0;entryDy=0;entryPerimeter=0;fontSize=12;startSize=8;endSize=8;" edge="1" parent="1" source="ObivibnyZp41QjcmPRQ--5" target="hMXItjmgLlIieqRShrU6-11">
          <mxGeometry relative="1" as="geometry" />
        </mxCell>
        <mxCell id="hMXItjmgLlIieqRShrU6-24" style="edgeStyle=none;curved=1;rounded=0;orthogonalLoop=1;jettySize=auto;html=1;entryX=0;entryY=0.5;entryDx=0;entryDy=0;entryPerimeter=0;fontSize=12;startSize=8;endSize=8;" edge="1" parent="1" source="hMXItjmgLlIieqRShrU6-1" target="hMXItjmgLlIieqRShrU6-12">
          <mxGeometry relative="1" as="geometry" />
        </mxCell>
        <mxCell id="hMXItjmgLlIieqRShrU6-25" style="edgeStyle=none;curved=1;rounded=0;orthogonalLoop=1;jettySize=auto;html=1;entryX=0;entryY=0.5;entryDx=0;entryDy=0;entryPerimeter=0;fontSize=12;startSize=8;endSize=8;" edge="1" parent="1" source="hMXItjmgLlIieqRShrU6-3" target="hMXItjmgLlIieqRShrU6-16">
          <mxGeometry relative="1" as="geometry" />
        </mxCell>
        <mxCell id="hMXItjmgLlIieqRShrU6-26" style="edgeStyle=none;curved=1;rounded=0;orthogonalLoop=1;jettySize=auto;html=1;entryX=0;entryY=0.5;entryDx=0;entryDy=0;entryPerimeter=0;fontSize=12;startSize=8;endSize=8;" edge="1" parent="1" source="hMXItjmgLlIieqRShrU6-5" target="hMXItjmgLlIieqRShrU6-15">
          <mxGeometry relative="1" as="geometry" />
        </mxCell>
        <mxCell id="hMXItjmgLlIieqRShrU6-27" style="edgeStyle=none;curved=1;rounded=0;orthogonalLoop=1;jettySize=auto;html=1;entryX=0;entryY=0.5;entryDx=0;entryDy=0;entryPerimeter=0;fontSize=12;startSize=8;endSize=8;" edge="1" parent="1" source="hMXItjmgLlIieqRShrU6-7" target="hMXItjmgLlIieqRShrU6-14">
          <mxGeometry relative="1" as="geometry" />
        </mxCell>
        <mxCell id="hMXItjmgLlIieqRShrU6-28" style="edgeStyle=none;curved=1;rounded=0;orthogonalLoop=1;jettySize=auto;html=1;entryX=0;entryY=0.5;entryDx=0;entryDy=0;entryPerimeter=0;fontSize=12;startSize=8;endSize=8;" edge="1" parent="1" source="hMXItjmgLlIieqRShrU6-9" target="hMXItjmgLlIieqRShrU6-13">
          <mxGeometry relative="1" as="geometry" />
        </mxCell>
        <mxCell id="hMXItjmgLlIieqRShrU6-29" value="" style="shape=stencil(fZbdcgIhDIWfZm8zQAg/17Z9j85U606tdqz9e/tmZ0c0uJ47xP0I5JwEBl59bp8/1kNwn6fj4W39M76ctgM/DCGM++36OJ50NPDjwKvN4bh+PR6+9i/z74/n6ctp9H74nlb4nbmSKZeJCu5vngmZ6jzzNAO7cX8FVKEsBuBKrgKg9oAE8gkCbLeUhEoEQKSUDZDLeWYRKIl8MEDRmHwfyBrBG6Amyu4+kDxxMoB3jhwgYu7TVAsVkFcWCs4CTBEoF4RctKeOxHIf8IXYpikHikAIf+MNUW94AGSSaoAoFIE3AlOyeWU+p2E5S9yfQZcQILVuQOwZdJNoS9Ls3wA5u2XZTIHECqeJ9kDpSaauRiNVcAY1QhdBzeLBli5WazpkSsBLV25uRaqWRyFawTQzRRIQYirJzq5atkBqLfouwqUxLBepthWb10vrWZY6UOAeyKCCtDV625mm9gmUC4Wc3VLJMMIE1BsA2FW9JraVlQB7n3c9oMKhCLEvIM1zBPZ25/umNQ1tVEC2G+fFCC8g398O2hNQuQlVu752DBfA+q0ptnqO5JFmeuIuo9DY7KjY71UxdJV4EntifPWorW++R/dC4t7V3DlIB5cHx2bc7eb3yvX//QNFp+bHDT/+Aw==);lineShape=1;strokeColor=default;" vertex="1" parent="1">
          <mxGeometry x="1990.6361531833104" y="286.54791662716093" width="4.4500378782049665" height="4.443082110816855" as="geometry" />
        </mxCell>
      </root>
    </mxGraphModel>
  </diagram>
</mxfile>
